# xmcd CD database file
#
# Track frame offsets:
#	150
#	13958
#	27644
#	41887
#	61536
#	75372
#	86059
#	102771
#	117754
#	129667
#	139479
#	151776
#	165791
#	213624
#
# Disc length: 3046 seconds
#
# Revision: 0
# Processed by: cddbd v1.5.2PL0 Copyright (c) Steve Scherf et al.
# Submitted via: CDex 1.51
#
DISCID=b30be40e
DTITLE=The Glenn Miller Memorial Orchestra - Best Of (disk 2)
DYEAR=2006
DGENRE=Blues
TTITLE0=Don't Sit Under The Appletree
TTITLE1=And The Angel Sing
TTITLE2=A Strinf Of Pearls
TTITLE3=St-Louis Blues
TTITLE4=I Know Why
TTITLE5=Fly Me To The Moon
TTITLE6=Stardust
TTITLE7=Kalamazoo
TTITLE8=When Honny Comes Marching Home
TTITLE9=Boogie Woogie
TTITLE10=Manhattan
TTITLE11=Make The Knife
TTITLE12=Sing Sing Sing
TTITLE13=Harlem Nocturn
EXTD=YEAR: 2006
EXTT0=
EXTT1=
EXTT2=
EXTT3=
EXTT4=
EXTT5=
EXTT6=
EXTT7=
EXTT8=
EXTT9=
EXTT10=
EXTT11=
EXTT12=
EXTT13=
PLAYORDER=
